<svg xmlns="http://www.w3.org/2000/svg" width="192" height="192" viewBox="0 0 192 192">
  <defs>
    <radialGradient id="shine" cx="40%" cy="40%" r="50%">
      <stop offset="0%" stop-color="rgba(255,255,255,0.1)"/>
      <stop offset="100%" stop-color="rgba(255,255,255,0)"/>
    </radialGradient>
    <radialGradient id="bg" cx="50%" cy="50%" r="50%">
      <stop offset="0%" stop-color="#1a1a2e"/>
      <stop offset="100%" stop-color="#0D0D1A"/>
    </radialGradient>
  </defs>
  <circle cx="96" cy="96" r="96" fill="#0D0D1A"/>
  <circle cx="96" cy="96" r="93" fill="none" stroke="rgba(139,92,246,0.35)" stroke-width="2.5"/>
  <circle cx="96" cy="96" r="60" fill="url(#bg)"/>
  <circle cx="96" cy="96" r="60" fill="none" stroke="rgba(139,92,246,0.3)" stroke-width="1.5"/>
  <g stroke="rgba(255,255,255,0.12)" stroke-width="1.2" fill="none">
    <line x1="96" y1="96" x2="96" y2="53"/>
    <line x1="96" y1="96" x2="137" y2="75"/>
    <line x1="96" y1="96" x2="123" y2="130"/>
    <line x1="96" y1="96" x2="69" y2="130"/>
    <line x1="96" y1="96" x2="55" y2="75"/>
    <line x1="96" y1="53" x2="137" y2="75"/>
    <line x1="137" y1="75" x2="123" y2="130"/>
    <line x1="123" y1="130" x2="69" y2="130"/>
    <line x1="69" y1="130" x2="55" y2="75"/>
    <line x1="55" y1="75" x2="96" y2="53"/>
  </g>
  <g fill="rgba(139,92,246,0.2)" stroke="rgba(139,92,246,0.35)" stroke-width="0.8">
    <polygon points="96,82 107,88 103,101 89,101 85,88"/>
    <polygon points="96,41 104,47 101,57 91,57 88,47"/>
    <polygon points="137,63 143,71 139,79 131,79 128,71"/>
    <polygon points="123,118 129,126 125,134 117,134 114,126"/>
    <polygon points="69,118 75,126 71,134 63,134 60,126"/>
    <polygon points="55,63 61,71 57,79 49,79 46,71"/>
  </g>
  <circle cx="96" cy="96" r="60" fill="url(#shine)"/>
</svg>